# xmcd CD database file
#
# Track frame offsets:
#	150
#	35202
#	54415
#	70477
#	102532
#	151155
#	175817
#	215132
#	235787
#	259035
#
# Disc length: 4493 seconds
#
# Revision: 4
# Processed by: cddbd v1.5.1PL0 Copyright (c) Steve Scherf et al.
# Submitted via: CDex 1.50
#
DISCID=90118b0a
DTITLE=John Coltrane - The Very Best Of John Coltrane
DYEAR=2001
DGENRE=Jazz
TTITLE0=A Love Supreme: Part 1 - Acknowledgement
TTITLE1=In a Sentimental Mood
TTITLE2=Bessie's Blues
TTITLE3=Naima
TTITLE4=Afro Blue
TTITLE5=Lush Life
TTITLE6=Crescent
TTITLE7=Impressions
TTITLE8=Alabama
TTITLE9=My Favorite Things
EXTD=YEAR: 2001
EXTT0=
EXTT1=
EXTT2=
EXTT3=
EXTT4=
EXTT5=
EXTT6=
EXTT7=
EXTT8=
EXTT9=
PLAYORDER=
